<?xml version="1.0" encoding="UTF-8" standalone="no"?>
<!DOCTYPE svg PUBLIC "-//W3C//DTD SVG 1.1//EN" "http://www.w3.org/Graphics/SVG/1.1/DTD/svg11.dtd">
<svg width="100%" height="100%" viewBox="0 0 640 480" version="1.1" xmlns="http://www.w3.org/2000/svg" xmlns:xlink="http://www.w3.org/1999/xlink" xml:space="preserve" xmlns:serif="http://www.serif.com/" style="fill-rule:evenodd;clip-rule:evenodd;stroke-linecap:round;stroke-linejoin:round;stroke-miterlimit:1.5;">
    <g transform="matrix(1,0,0,1,1.02922,-32.7747)">
        <rect x="208.516" y="103.831" width="184.737" height="190.813" style="fill:rgb(255,255,0);stroke:rgb(255,210,0);stroke-width:2px;"/>
    </g>
    <g transform="matrix(1,0,0,1,1.02922,-32.7747)">
        <ellipse cx="332.524" cy="271.138" rx="7.217" ry="6.668" style="fill:rgb(255,210,0);stroke:black;stroke-width:2px;"/>
    </g>
    <g transform="matrix(1,0,0,1,1.02922,-32.7747)">
        <ellipse cx="377.871" cy="267.804" rx="4.553" ry="3.334" style="fill:rgb(255,210,0);stroke:black;stroke-width:2px;"/>
    </g>
    <g transform="matrix(1,0,0,1,5.88236,-26.0282)">
        <ellipse cx="277.359" cy="155.828" rx="23.526" ry="20.461" style="fill:white;stroke:black;stroke-width:2px;"/>
    </g>
    <g transform="matrix(1.97359,0,0,1.26365,-235.103,-76.947)">
        <ellipse cx="262.64" cy="162.004" rx="5.758" ry="8.183" style="fill:rgb(0,143,255);stroke:black;stroke-width:1.21px;"/>
    </g>
    <g transform="matrix(1,0,0,1,20.6771,-28.3589)">
        <ellipse cx="262.564" cy="155.431" rx="5.682" ry="5.925" style="stroke:black;stroke-width:2px;"/>
    </g>
    <g transform="matrix(1.0945,0,0,1.18218,-31.4789,-91.9471)">
        <path d="M261.665,209.015C261.772,212.559 262.453,235.064 294.475,238.799C351.737,245.476 360.709,190.475 352.201,208.548" style="fill:none;stroke:black;stroke-width:1.76px;"/>
    </g>
    <g transform="matrix(0.727335,0,0,0.710027,232.169,-21.385)">
        <ellipse cx="95.891" cy="252.487" rx="5.577" ry="29.728" style="fill:rgb(255,255,0);stroke:black;stroke-width:2.78px;"/>
    </g>
    <g transform="matrix(1,0,0,0.725695,5.93354,16.8573)">
        <rect x="268.398" y="240" width="23.526" height="22.913" style="fill:rgb(246,246,246);stroke:black;stroke-width:2.29px;"/>
    </g>
    <g transform="matrix(1.47262,0,0,0.725695,-154.957,16.8573)">
        <rect x="311.332" y="240" width="16.994" height="22.913" style="fill:rgb(246,246,246);stroke:black;stroke-width:1.72px;"/>
    </g>
    <g transform="matrix(1.63149,0,0,1.38959,-118.388,-122.858)">
        <rect x="185.983" y="210.772" width="15.888" height="20.454" style="fill:rgb(246,246,246);stroke:rgb(141,137,137);stroke-width:1.32px;"/>
    </g>
    <g transform="matrix(1.63149,0,0,1.38959,90.8534,-122.503)">
        <rect x="185.983" y="210.772" width="15.888" height="20.454" style="fill:rgb(246,246,246);stroke:rgb(141,137,137);stroke-width:1.32px;"/>
    </g>
    <g transform="matrix(1,0,0,1.85356,137.666,-186.797)">
        <path d="M50.202,209.004C50.105,212.905 45.197,258.344 57.001,254.879C66.297,252.151 63.262,225.718 65.442,214.334C65.487,214.098 65.948,211.69 65.958,211.377C66.078,207.804 65.563,207.98 65.308,208.068" style="fill:rgb(255,255,0);stroke:rgb(255,210,0);stroke-width:1.34px;"/>
    </g>
    <g transform="matrix(1,0,0,2.04582,349.7,-226.794)">
        <path d="M50.202,209.004C50.105,212.905 45.197,258.344 57.001,254.879C66.297,252.151 63.262,225.718 65.442,214.334C65.487,214.098 65.948,211.69 65.958,211.377C66.078,207.804 65.563,207.98 65.308,208.068" style="fill:rgb(255,255,0);stroke:rgb(255,210,0);stroke-width:1.24px;"/>
    </g>
    <g transform="matrix(1.07408,0,0,1.2169,-24.1038,-56.8398)">
        <ellipse cx="326.27" cy="153.373" rx="22.738" ry="16.814" style="fill:rgb(246,246,246);stroke:black;stroke-width:1.74px;"/>
    </g>
    <g transform="matrix(0.788884,0,0,1.28728,63.586,-78.9915)">
        <ellipse cx="333.066" cy="160.618" rx="13.066" ry="7" style="fill:rgb(0,143,255);stroke:black;stroke-width:1.87px;"/>
    </g>
    <g transform="matrix(1,0,0,1,-4.12444,-28.2691)">
        <ellipse cx="330.461" cy="156.038" rx="5.154" ry="4.506" style="stroke:black;stroke-width:2px;"/>
    </g>
    <g transform="matrix(1,0,0,1,1.02922,-32.7747)">
        <ellipse cx="233.771" cy="271.138" rx="6.427" ry="6.668" style="fill:rgb(255,210,0);stroke:black;stroke-width:2px;"/>
    </g>
    <g transform="matrix(1,0,0,1,1.02922,-32.7747)">
        <ellipse cx="367.993" cy="124.873" rx="5.325" ry="5.14" style="fill:rgb(255,210,0);stroke:black;stroke-width:2px;"/>
    </g>
    <g transform="matrix(1,0,0,1,1.02922,-32.7747)">
        <ellipse cx="227.386" cy="137.974" rx="6.385" ry="7.961" style="fill:rgb(255,210,0);stroke:black;stroke-width:2px;"/>
    </g>
    <g transform="matrix(1,0,0,1,1.02922,-32.7747)">
        <ellipse cx="367.993" cy="222.923" rx="5.325" ry="6.355" style="fill:rgb(255,234,0);stroke:black;stroke-width:2px;"/>
    </g>
    <g transform="matrix(1,0,0,1,1.02922,-32.7747)">
        <ellipse cx="257.102" cy="244.396" rx="5.329" ry="4.396" style="fill:rgb(255,210,0);stroke:black;stroke-width:2px;"/>
    </g>
    <g transform="matrix(1,0,0,1,1.02922,-32.7747)">
        <ellipse cx="227.386" cy="209.863" rx="6.385" ry="6.705" style="fill:rgb(255,210,0);stroke:black;stroke-width:2px;"/>
    </g>
    <g transform="matrix(1,0,0,1,1.02922,-32.7747)">
        <ellipse cx="285.32" cy="272.805" rx="4.704" ry="5.001" style="fill:rgb(255,210,0);stroke:black;stroke-width:2px;"/>
    </g>
    <g transform="matrix(1,0,0,1,1.02922,-32.7747)">
        <ellipse cx="295.454" cy="120.221" rx="5.431" ry="3.862" style="fill:rgb(255,210,0);stroke:black;stroke-width:2px;"/>
    </g>
    <g transform="matrix(1,0,0,1,1.02922,-32.7747)">
        <rect x="208.516" y="294.643" width="184.737" height="27.662" style="fill:rgb(189,161,81);stroke:black;stroke-width:2px;"/>
    </g>
    <g transform="matrix(1,0,0,1,185.619,-15.9371)">
        <ellipse cx="107.217" cy="289.437" rx="4.243" ry="11.631" style="fill:rgb(255,66,108);stroke:black;stroke-width:2px;"/>
    </g>
    <g transform="matrix(1,0,0,1,1.02922,-32.7747)">
        <rect x="216.01" y="306.275" width="25.65" height="6.725" style="stroke:black;stroke-width:2px;"/>
    </g>
    <g transform="matrix(1,0,0,1,-4.22597,-32.7747)">
        <rect x="258.086" y="306.275" width="23.983" height="6.725" style="stroke:black;stroke-width:2px;"/>
    </g>
    <g transform="matrix(1.02335,0,0,1.48599,-9.81992,-184.89)">
        <rect x="309.982" y="308.474" width="26.639" height="4.526" style="stroke:black;stroke-width:1.57px;"/>
    </g>
    <g transform="matrix(1,0,0,1,1.02922,-32.7747)">
        <path d="M263.027,150.593C262.37,149.772 257.703,143.94 253.739,141.284" style="fill:none;stroke:black;stroke-width:2px;"/>
    </g>
    <g transform="matrix(1,0,0,1,1.02922,-32.7747)">
        <path d="M277.357,138.824L277.357,126.649C275.799,139.186 276.67,139.767 277.583,140.378" style="fill:none;stroke:black;stroke-width:2px;"/>
    </g>
    <g transform="matrix(1,0,0,1,1.02922,-32.7747)">
        <path d="M289.968,141.508C290.679,130.032 293.436,130.01 293.577,130.895" style="fill:none;stroke:black;stroke-width:2px;"/>
    </g>
    <g transform="matrix(1,0,0,1,1.02922,-32.7747)">
        <path d="M428.419,56.259L428.419,56.551" style="fill:none;stroke:black;stroke-width:2px;"/>
    </g>
    <g transform="matrix(1,0,0,1,1.02922,-32.7747)">
        <path d="M339.964,145.603C343.465,141.21 343.195,141.214 347.422,137.736" style="fill:none;stroke:black;stroke-width:2px;"/>
    </g>
    <g transform="matrix(1,0,0,1,1.02922,-32.7747)">
        <path d="M324.843,139.042C326.947,130.236 326.98,130.306 327.118,129.536C326.825,131.671 327.542,133.427 325.433,138.072" style="fill:none;stroke:black;stroke-width:2px;"/>
    </g>
    <g transform="matrix(1,0,0,1,1.02922,-32.7747)">
        <path d="M420.565,93.742L420.565,93.87" style="fill:none;stroke:black;stroke-width:2px;"/>
    </g>
    <g transform="matrix(1,0,0,1,1.02922,-32.7747)">
        <path d="M310.206,142.684C309.499,142.344 308.83,142.023 306.135,133.764C307.892,139.85 308.355,139.495 313.091,143.755" style="fill:none;stroke:black;stroke-width:2px;"/>
    </g>
    <path d="M494.514,84.195L494.514,84.323" style="fill:none;stroke:black;stroke-width:2px;"/>
    <g transform="matrix(1,0,0,1,0.930909,-36.8926)">
        <rect x="347.422" y="308.474" width="30.407" height="8.236" style="stroke:black;stroke-width:2px;"/>
    </g>
    <g transform="matrix(1.26985,0,0,1.11917,-81.5815,-39.3344)">
        <ellipse cx="298.841" cy="76.839" rx="7.294" ry="21.797" style="fill:white;stroke:rgb(141,137,137);stroke-width:1.67px;"/>
    </g>
    <g transform="matrix(1,0,0,1,1.02922,-32.7747)">
        <path d="M291.009,83.197C291.702,86.448 298.948,99.16 301.814,81.631" style="fill:none;stroke:rgb(255,234,0);stroke-width:2px;"/>
    </g>
    <g transform="matrix(1,0,0,1,1.02922,-32.7747)">
        <path d="M341.152,77.92L341.287,77.92" style="fill:none;stroke:rgb(141,137,137);stroke-width:2px;"/>
    </g>
    <g transform="matrix(1,0,0,1,1.02922,-32.7747)">
        <path d="M296.101,87.119C295.962,83.602 295.823,80.086 295.683,76.569C295.544,77.598 294.126,88.043 295.347,89.551" style="fill:none;stroke:rgb(0,143,255);stroke-width:2px;"/>
    </g>
    <g transform="matrix(1,0,0,1,1.02922,-32.7747)">
        <path d="M296.236,77.096C292.362,76.414 285.439,69.553 291.506,68.65C297.283,67.79 299.163,66.673 300.183,72.503C301.213,78.383 295.246,77.445 294.582,77.504" style="fill:none;stroke:rgb(0,143,255);stroke-width:2px;"/>
    </g>
    <g transform="matrix(1,0,0,1,1.02922,-32.7747)">
        <path d="M385.719,57.197L385.719,57.331" style="fill:none;stroke:rgb(141,137,137);stroke-width:2px;"/>
    </g>
    <g transform="matrix(1,0,0,1,1.02922,-32.7747)">
        <path d="M291.25,78.132C294.889,77.6 294.821,77.846 303.334,77.809C295.644,78.939 295.274,80.079 292.981,78.008" style="fill:none;stroke:rgb(0,143,255);stroke-width:2px;"/>
    </g>
    <g transform="matrix(1.1798,0,0,1,-47.3226,-32.7747)">
        <rect x="240.455" y="322.305" width="28.462" height="40.184" style="fill:rgb(189,161,81);stroke:black;stroke-width:1.83px;"/>
    </g>
    <g transform="matrix(1.1798,0,0,1,44.3734,-32.7747)">
        <rect x="240.455" y="322.305" width="28.462" height="40.184" style="fill:rgb(189,161,81);stroke:black;stroke-width:1.83px;"/>
    </g>
    <g transform="matrix(1.46876,0,0,1.23345,-122.802,-117.399)">
        <rect x="250.435" y="362.488" width="11.069" height="44.644" style="fill:rgb(255,255,0);stroke:black;stroke-width:1.47px;"/>
    </g>
    <g transform="matrix(1.46876,0,0,1.23345,-31.1058,-117.399)">
        <rect x="250.435" y="362.488" width="11.069" height="44.644" style="fill:rgb(255,255,0);stroke:black;stroke-width:1.47px;"/>
    </g>
    <g transform="matrix(1,0,0,1,-7.09981,-32.7747)">
        <rect x="252.127" y="417.555" width="16.79" height="40.689" style="fill:white;stroke:black;stroke-width:2px;"/>
    </g>
    <g transform="matrix(1,0,0,1,84.0646,-32.7747)">
        <rect x="252.127" y="417.555" width="16.79" height="40.689" style="fill:white;stroke:black;stroke-width:2px;"/>
    </g>
    <g>
        <g transform="matrix(1.02449,0,0,1,-0.484397,-4.55651)">
            <ellipse cx="240.873" cy="434.378" rx="18.843" ry="6.515" style="stroke:black;stroke-width:1.98px;"/>
        </g>
        <g transform="matrix(0.838098,0,0,0.651919,0.0986023,140.11)">
            <ellipse cx="285.225" cy="440.367" rx="5.614" ry="4.03" style="fill:white;stroke:black;stroke-width:2.66px;"/>
        </g>
    </g>
    <g transform="matrix(1,0,0,1,101.306,1.26007)">
        <g transform="matrix(1.02449,0,0,1,-0.484397,-4.55651)">
            <ellipse cx="240.873" cy="434.378" rx="18.843" ry="6.515" style="stroke:black;stroke-width:1.98px;"/>
        </g>
        <g transform="matrix(0.838098,0,0,0.651919,15.9221,141.478)">
            <ellipse cx="285.225" cy="440.367" rx="5.614" ry="4.03" style="fill:white;stroke:black;stroke-width:2.66px;"/>
        </g>
    </g>
    <path d="M245.522,392.943C253.397,392.943 253.27,392.702 261.136,393.173" style="fill:none;stroke:rgb(0,143,255);stroke-width:2px;"/>
    <g transform="matrix(1,0,0,1,-0.726686,0.645927)">
        <path d="M247.449,399.434C257.578,398.553 261.968,399.215 263.215,399.403C254.617,399.049 254.823,398.484 246.249,398.151" style="stroke:rgb(255,31,0);stroke-width:2px;"/>
    </g>
    <path d="M429.669,372.778L429.772,372.778" style="fill:none;stroke:black;stroke-width:2px;"/>
    <path d="M337.27,392.848C338.39,392.476 340.166,391.888 352.027,392.744" style="fill:none;stroke:rgb(0,143,255);stroke-width:2px;"/>
    <path d="M418.661,371.318L418.661,371.422" style="fill:none;stroke:rgb(255,31,0);stroke-width:2px;"/>
    <g transform="matrix(1.06631,5.95863e-17,-4.15899e-16,-4.04654,-22.2998,2024.2)">
        <path d="M338.019,401.712C350.534,401.446 350.707,401.678 351.048,401.167" style="fill:none;stroke:rgb(255,31,0);stroke-width:0.68px;"/>
    </g>
    <g transform="matrix(3.9294,0,0,1.28956,81.6083,-312.204)">
        <ellipse cx="55.173" cy="293.939" rx="2.23" ry="3.263" style="fill:rgb(189,161,81);"/>
    </g>
</svg>
